<?xml version="1.0" encoding="UTF-8"?>
<svg version="1.1" xmlns="http://www.w3.org/2000/svg" width="213" height="198">
<path d="M0 0 C-0.31340332 0.51908936 -0.62680664 1.03817871 -0.94970703 1.57299805 C-2.36058116 3.93367117 -3.74281651 6.30992442 -5.125 8.6875 C-5.61871094 9.50412109 -6.11242187 10.32074219 -6.62109375 11.16210938 C-9.36443689 15.65522231 -9.36443689 15.65522231 -9.6171875 20.70703125 C-7.56313053 23.61942604 -5.36156731 26.33699918 -3 29 C-2.0028355 30.17096402 -1.00676637 31.34286159 -0.01171875 32.515625 C1.8406221 34.68034462 3.72248349 36.77431613 5.66796875 38.859375 C15.80782322 50.4926964 19.37619282 65.92314135 22.4296875 80.77734375 C26.95240352 101.11494814 37.62810132 111.86049724 53 125 C52.67 125.66 52.34 126.32 52 127 C43.09 123.7 34.18 120.4 25 117 C23.2675 119.35125 21.535 121.7025 19.75 124.125 C19.21213867 124.85348145 18.67427734 125.58196289 18.12011719 126.33251953 C15.90731304 129.34307632 13.74012564 132.35933208 11.703125 135.4921875 C11.14109375 136.31976563 10.5790625 137.14734375 10 138 C9.67 138 9.34 138 9 138 C9.06058594 137.21874756 9.12117187 136.43749512 9.18359375 135.63256836 C9.45848137 132.06775166 9.72927654 128.50263526 10 124.9375 C10.14308594 123.09381836 10.14308594 123.09381836 10.2890625 121.21289062 C10.46845011 118.83600476 10.63727036 116.45829274 10.79443359 114.07983398 C10.95001181 111.74893237 11.14216095 109.42043388 11.3515625 107.09375 C10.85619511 102.73451701 8.91051346 100.06063676 6.375 96.5625 C5.94832031 95.94568359 5.52164063 95.32886719 5.08203125 94.69335938 C4.19861685 93.42625305 3.30112438 92.16886272 2.39086914 90.92089844 C1.46776657 89.64602201 0.57050697 88.35200713 -0.29907227 87.04003906 C-4.47521409 80.97133858 -9.78471574 76.94965156 -15.6875 72.625 C-16.63689453 71.91472656 -17.58628906 71.20445313 -18.56445312 70.47265625 C-26.21553497 64.63358371 -26.21553497 64.63358371 -35.2421875 61.7109375 C-37.08876953 61.38222656 -37.08876953 61.38222656 -38.97265625 61.046875 C-40.26042969 60.82515625 -41.54820313 60.6034375 -42.875 60.375 C-44.15503906 60.14554688 -45.43507813 59.91609375 -46.75390625 59.6796875 C-54.3300006 58.30997329 -54.3300006 58.30997329 -62 58 C-60.02 60.31 -58.04 62.62 -56 65 C-59.70671363 65.04395313 -63.41053627 65.06381686 -67.1171875 65.0234375 C-69.24787269 65.01057622 -71.3816335 65.02496668 -73.5078125 65.1640625 C-80.02048275 65.23835151 -84.08767562 61.13515538 -88.60180664 56.86206055 C-92.65312395 53.25701977 -95.54486121 52.34883454 -100.94604492 52.65307617 C-104.69624003 53.07909162 -108.43247752 53.58344835 -112.16796875 54.12109375 C-112.89751266 54.22584518 -113.62705658 54.33059662 -114.37870789 54.43852234 C-118.94145593 55.09838904 -118.94145593 55.09838904 -123.49487305 55.8190918 C-136.36166705 57.9199327 -136.36166705 57.9199327 -140.60791016 55.53564453 C-142.36741516 53.78056151 -143.73551458 52.1333061 -145 50 C-141.91508072 46.86385512 -138.7635055 43.85113535 -135.49658203 40.90209961 C-129.43204439 35.42465889 -123.91586958 29.73142601 -118.6328125 23.49609375 C-112.00262658 17.21020532 -101.83180052 15.92336613 -93.1875 13.875 C-92.04590927 13.60154755 -92.04590927 13.60154755 -90.8812561 13.3225708 C-77.72132811 10.23250454 -65.04759259 9.12100929 -51.5456543 9.47607422 C-42.96732752 9.57837922 -37.09809533 8.17834463 -29.3684082 4.47851562 C-24.1438391 2.18526416 -18.86706403 1.36239836 -13.25 0.5625 C-11.65285156 0.30436523 -11.65285156 0.30436523 -10.0234375 0.04101562 C-2.3043914 -1.1521957 -2.3043914 -1.1521957 0 0 Z M-30.484375 10.06640625 C-37.49094273 13.2903685 -43.70469437 13.59412947 -51.41958618 13.36517334 C-65.71264935 13.00329179 -78.95467693 14.9650619 -92.8125 18.375 C-93.64104492 18.57622467 -94.46958984 18.77744934 -95.32324219 18.98477173 C-97.68467511 19.56533575 -100.0405403 20.16345018 -102.39453125 20.7734375 C-103.44076408 21.04076439 -103.44076408 21.04076439 -104.50813293 21.31349182 C-110.15238215 22.8438438 -114.32754318 24.93000618 -118.234375 29.29296875 C-118.80462402 29.92001709 -119.37487305 30.54706543 -119.96240234 31.19311523 C-120.55230957 31.85126221 -121.1422168 32.50940918 -121.75 33.1875 C-126.90148385 38.83215329 -132.10623663 44.11971446 -138 49 C-137.67 49.99 -137.34 50.98 -137 52 C-127.22779244 51.43659241 -117.5530988 50.2635799 -107.84790039 49.01635742 C-104.90109631 48.64689442 -101.95306147 48.31493237 -99 48 C-97.73542969 47.85820313 -96.47085938 47.71640625 -95.16796875 47.5703125 C-90.6632635 48.18130828 -88.42372098 50.39009005 -85.1875 53.4375 C-79.41874253 58.8717428 -79.41874253 58.8717428 -71.875 60.0625 C-70.96492188 60.05347656 -70.05484375 60.04445312 -69.1171875 60.03515625 C-68.41851562 60.02355469 -67.71984375 60.01195312 -67 60 C-67.95729916 58.87411986 -68.91587895 57.7493285 -69.875 56.625 C-70.40867187 55.99851563 -70.94234375 55.37203125 -71.4921875 54.7265625 C-72.61432007 53.44163349 -73.79371975 52.20628025 -75 51 C-70.12116049 51.64319106 -65.2520485 52.32384142 -60.38671875 53.0625 C-56.04178284 53.72211385 -51.69939653 54.2628342 -47.33203125 54.75 C-30.79900573 56.87132128 -20.45945435 62.07903461 -8.09130859 73.19848633 C-6.20915723 74.81982592 -4.32289055 76.16394602 -2.2421875 77.51171875 C1.67623023 80.22717317 3.77078091 83.73671027 6.125 87.8125 C6.52847656 88.48603516 6.93195313 89.15957031 7.34765625 89.85351562 C8.16287884 91.21439039 8.968337 92.58116218 9.76391602 93.95361328 C10.59614826 95.33140721 11.47892569 96.67976012 12.40600586 97.99560547 C15.85438014 102.95848083 16.67328511 106.50541663 16.3125 112.5 C16.28994141 113.22703125 16.26738281 113.9540625 16.24414062 114.703125 C16.18603063 116.46966897 16.09638244 118.23513037 16 120 C19.78034623 116.52263974 19.78034623 116.52263974 22 112 C22.97582031 112.37253906 23.95164063 112.74507813 24.95703125 113.12890625 C26.24200736 113.60725502 27.52717367 114.08509308 28.8125 114.5625 C29.45509766 114.80935547 30.09769531 115.05621094 30.75976562 115.31054688 C34.81514729 116.84788661 34.81514729 116.84788661 39 116 C37.98270562 114.9548769 36.96090025 113.91414487 35.9375 112.875 C35.08478516 112.00488281 35.08478516 112.00488281 34.21484375 111.1171875 C32.18008873 109.06445886 32.18008873 109.06445886 30.37701416 107.86608887 C24.51930648 103.5777837 23.17968256 98.89713077 21.45703125 92.0390625 C20.85137058 89.85273734 20.24523504 87.6665437 19.63867188 85.48046875 C18.72397975 82.06981018 17.8207411 78.65659279 16.92944336 75.23974609 C12.93971258 60.11554997 8.46544557 48.71184695 -2 37 C-3.35262563 35.37305726 -4.70331021 33.7444957 -6.05078125 32.11328125 C-7.70267089 30.17611778 -9.36570495 28.25236826 -11.05273438 26.34570312 C-14.99600492 21.68116047 -14.99600492 21.68116047 -15.015625 18.3359375 C-13.95107396 15.8874701 -12.80467166 13.60669974 -11.4375 11.3125 C-9.53684034 8.34778023 -9.53684034 8.34778023 -9 5 C-16.68774067 5 -23.63809872 6.64070358 -30.484375 10.06640625 Z " fill="#000000" transform="translate(152,40)"/>
</svg>
